# xmcd
#
# Track frame offsets: 
#        150
#        11473
#        23662
#        34403
#        42246
#        56532
#        68338
#        87037
#        99432
#        102658
#        119266
#
# Disc length: 1777 seconds
#
# Revision: 0
# Processed by: cddbd v1.5.2PL0 Copyright (c) Steve Scherf et al.
# Submitted via: ExactAudioCopyFreeDBPlugin 1.0
#
DISCID=8006ef0b
DTITLE=Serengeti - C. A. R.
DYEAR=2012
DGENRE=Hip Hop
TTITLE0=Greyhound
TTITLE1=Talk To Me
TTITLE2=Nice
TTITLE3=Amnesia
TTITLE4=Geti Life
TTITLE5=Peekaboo
TTITLE6=Go Dancin
TTITLE7=Cold
TTITLE8=Say What?
TTITLE9=Chill
TTITLE10=Uncle Traum
EXTD=
EXTT0=
EXTT1=
EXTT2=
EXTT3=
EXTT4=
EXTT5=
EXTT6=
EXTT7=
EXTT8=
EXTT9=
EXTT10=
PLAYORDER=
